<svg width="24" height="24" viewBox="0 0 24 24" xmlns="http://www.w3.org/2000/svg">
  <path d="M12 0C5.372 0 0 5.372 0 12c0 5.302 3.438 9.8 8.206 11.376.6.112.82-.258.82-.577 0-.285-.012-1.04-.016-2.04-3.338.724-4.042-1.616-4.042-1.616-.546-1.385-1.334-1.755-1.334-1.755-1.092-.746.084-.73.084-.73 1.206.084 1.838 1.236 1.838 1.236 1.07 1.834 2.806 1.305 3.492.996.108-.77.42-1.304.762-1.604-2.672-.304-5.48-1.336-5.48-5.944 0-1.314.468-2.384 1.236-3.226-.124-.304-.536-1.524.116-3.176 0 0 1.008-.322 3.3 1.232a11.556 11.556 0 0 1 3-.404c1.02.006 2.04.136 3 .404 2.292-1.554 3.298-1.232 3.298-1.232.656 1.652.24 2.872.12 3.176.768.842 1.232 1.912 1.232 3.226 0 4.62-2.812 5.634-5.492 5.93.432.372.816 1.104.816 2.224 0 1.606-.014 2.896-.014 3.286 0 .315.212.69.824.572C20.566 21.794 24 17.296 24 12c0-6.628-5.372-12-12-12" fill="white"/>
</svg>
